<svg width="32" height="33" viewBox="0 0 32 33" fill="none" xmlns="http://www.w3.org/2000/svg">
<g id="menu 3">
<path id="Vector" d="M5.33333 24.5H26.6667C27.4 24.5 28 23.9 28 23.1667C28 22.4333 27.4 21.8333 26.6667 21.8333H5.33333C4.6 21.8333 4 22.4333 4 23.1667C4 23.9 4.6 24.5 5.33333 24.5ZM5.33333 17.8333H26.6667C27.4 17.8333 28 17.2333 28 16.5C28 15.7667 27.4 15.1667 26.6667 15.1667H5.33333C4.6 15.1667 4 15.7667 4 16.5C4 17.2333 4.6 17.8333 5.33333 17.8333ZM4 9.83333C4 10.5667 4.6 11.1667 5.33333 11.1667H26.6667C27.4 11.1667 28 10.5667 28 9.83333C28 9.1 27.4 8.5 26.6667 8.5H5.33333C4.6 8.5 4 9.1 4 9.83333Z" fill="white"/>
</g>
</svg>
